<svg xmlns="http://www.w3.org/2000/svg" version="1.1" xmlns:xlink="http://www.w3.org/1999/xlink" xmlns:svgjs="http://svgjs.dev/svgjs" width="2000" height="2250" viewBox="0 0 2000 2250"><g transform="matrix(1,0,0,1,0,0)"><svg viewBox="0 0 320 360" data-background-color="#046380" preserveAspectRatio="xMidYMid meet" height="2250" width="2000" xmlns="http://www.w3.org/2000/svg" xmlns:xlink="http://www.w3.org/1999/xlink"><g id="tight-bounds" transform="matrix(1,0,0,1,0,0)"><svg viewBox="0 0 320 360" height="360" width="320"><g><svg></svg></g><g><svg viewBox="0 0 320 360" height="360" width="320"><g><path d="M160 340c88.258 0 160-71.742 160-160 0-88.258-71.742-160-160-160-88.258 0-160 71.742-160 160 0 88.258 71.742 160 160 160zM165.161 329.368v-10.323c72.671-2.684 131.2-61.213 133.884-133.884h10.323c-2.684 78.452-65.755 141.523-144.207 144.207zM165.161 30.632c78.452 2.684 141.523 65.755 144.207 144.207h-10.323c-2.684-72.671-61.213-131.2-133.884-133.884zM289.032 180c0 71.123-57.91 129.032-129.032 129.032-71.123 0-129.032-57.91-129.032-129.032 0-71.123 57.91-129.032 129.032-129.032 71.123 0 129.032 57.91 129.032 129.032zM154.839 30.632v10.323c-72.671 2.684-131.2 61.213-133.884 133.884h-10.323c2.684-78.452 65.755-141.523 144.207-144.207zM20.955 185.161c2.684 72.671 61.213 131.2 133.884 133.884v10.323c-78.452-2.684-141.523-65.755-144.207-144.207z" fill="#ffffff" fill-rule="nonzero" stroke="none" stroke-width="1" stroke-linecap="butt" stroke-linejoin="miter" stroke-miterlimit="10" stroke-dasharray="" stroke-dashoffset="0" font-family="none" font-weight="none" font-size="none" text-anchor="none" style="mix-blend-mode: normal" data-fill-palette-color="tertiary"></path></g><g transform="matrix(1,0,0,1,100.22262852090287,90)"><svg viewBox="0 0 119.55474295819425 180" height="180" width="119.55474295819425"><g><svg viewBox="0 0 119.55474295819425 180" height="180" width="119.55474295819425"><g><svg viewBox="0 0 119.55474295819425 180" height="180" width="119.55474295819425"><g><svg viewBox="0 0 119.55474295819425 180" height="180" width="119.55474295819425"><g id="textblocktransform"><svg viewBox="0 0 119.55474295819425 180" height="180" width="119.55474295819425" id="textblock"><g><svg viewBox="0 0 119.55474295819425 180" height="180" width="119.55474295819425"><g transform="matrix(1,0,0,1,0,0)"><svg width="119.55474295819425" viewBox="-4.1888671875 -38.25 37.4647291417 56.4099998479" height="180" data-palette-color="#ffffff"><path d="M8.6-28.9L8.6-28.9Q8.35-28.9 7.8-29 7.25-29.1 7.25-29.45L7.25-29.45Q7.25-29.65 7.7-29.88 8.15-30.1 8.72-30.5 9.3-30.9 9.75-31.58 10.2-32.25 10.2-33.3L10.2-33.3Q10.2-34.7 9.7-35.3L9.7-35.3Q9.6-35.45 9.45-35.6 9.3-35.75 9.35-35.85L9.35-35.85Q9.45-35.85 9.58-35.8 9.7-35.75 9.8-35.7L9.8-35.7Q10.8-35.15 11.33-34.25 11.85-33.35 11.85-32.55L11.85-32.55Q11.85-30.95 11.08-29.93 10.3-28.9 8.6-28.9ZM6.75-30.9L6.75-30.9Q6.5-30.85 6.33-30.9 6.15-30.95 6.15-31.25L6.15-31.25Q6.15-31.65 6.45-32.02 6.75-32.4 7.03-32.85 7.3-33.3 7.4-33.88 7.5-34.45 7.1-35.3L7.1-35.3Q7-35.5 6.75-35.8 6.5-36.1 6.6-36.2L6.6-36.2Q6.7-36.25 7.03-36.13 7.35-36 7.45-35.9L7.45-35.9Q8.3-35.5 8.72-34.75 9.15-34 9.15-33.3L9.15-33.3Q9.15-32.35 8.38-31.75 7.6-31.15 6.75-30.9ZM5.3-33.65L5.3-33.65Q5.3-33.85 5.48-34.2 5.65-34.55 5.95-34.55L5.95-34.55Q6.2-34.55 6.35-34.2 6.5-33.85 6.5-33.65L6.5-33.65Q6.5-33.45 6.35-33.1 6.2-32.75 5.95-32.75L5.95-32.75Q5.65-32.75 5.48-33.1 5.3-33.45 5.3-33.65ZM8.35-17L8.35-17Q8.25-17.7 8.03-19 7.8-20.3 7.35-21.35L7.35-21.35Q7.25-21.6 7.05-21.95 6.85-22.3 6.75-22.25L6.75-22.25Q6.65-22.2 6.65-21.9 6.65-21.6 6.75-20.85L6.75-20.85Q6.95-19.65 6.93-17.93 6.9-16.2 6.68-14.15 6.45-12.1 5.95-9.8 5.45-7.5 4.7-5.2L4.7-5.2Q4.5-4.6 4.15-3.78 3.8-2.95 3.4-2.02 3-1.1 2.63-0.18 2.25 0.75 2.05 1.55L2.05 1.55Q1.85 2.8 2.6 1.8L2.6 1.8Q3.95 0.3 5.1-1.9 6.25-4.1 7.08-6.6 7.9-9.1 8.25-11.8 8.6-14.5 8.35-17ZM9.75-16L9.75-16Q9.65-16.35 9.6-16.43 9.55-16.5 9.45-16.5L9.45-16.5Q9.35-16.5 9.35-16.1L9.35-16.1Q9.35-12.65 8.7-9.5 8.05-6.35 6.9-3.35L6.9-3.35Q6.7-2.8 6.1-1.45 5.5-0.1 4.67 1.63 3.85 3.35 2.95 5.23 2.05 7.1 1.3 8.7 0.55 10.3 0.08 11.4-0.4 12.5-0.4 12.6L-0.4 12.6Q-0.4 12.8-0.3 12.78-0.2 12.75-0.1 12.65 0 12.55 0.1 12.4 0.2 12.25 0.25 12.2L0.25 12.2Q2 10.1 3.9 6.9 5.8 3.7 7.28 0.08 8.75-3.55 9.6-7.28 10.45-11 10.1-14.1L10.1-14.1Q10-15.1 9.75-16ZM-0.8-0.25L-0.8-0.25Q-1.5 1.55-2.2 3.28-2.9 5-3.4 6.83-3.9 8.65-4.1 10.65-4.3 12.65-4.05 14.95L-4.05 14.95Q-4.05 15.2-3.98 15.55-3.9 15.9-3.83 16.25-3.75 16.6-3.65 16.88-3.55 17.15-3.5 17.2L-3.5 17.2Q-3.4 17.2-3.4 16.75L-3.4 16.75Q-3.35 14.4-3.05 12.3-2.75 10.2-2.23 8.25-1.7 6.3-0.98 4.42-0.25 2.55 0.6 0.6L0.6 0.6Q1.6-1.5 2.7-3.98 3.8-6.45 4.65-9.13 5.5-11.8 5.95-14.6 6.4-17.4 6.1-20.25L6.1-20.25Q6-20.8 5.88-21.53 5.75-22.25 5.5-23L5.5-23Q5.25-23.8 5.1-23.8L5.1-23.8Q5-23.8 5.05-23L5.05-23Q5.35-20 4.8-16.95 4.25-13.9 3.3-10.95 2.35-8 1.23-5.28 0.1-2.55-0.8-0.25ZM-0.2 7.65L-0.2 7.65Q-0.2 7.5-0.35 7.45L-0.35 7.45Q-0.7 7.4-1.1 8.15-1.5 8.9-1.88 10.05-2.25 11.2-2.48 12.6-2.7 14-2.7 15.25L-2.7 15.25Q-2.7 15.65-2.58 16.38-2.45 17.1-2.35 17.5L-2.35 17.5Q-2.35 17.6-2.27 17.88-2.2 18.15-2.1 18.15L-2.1 18.15Q-1.95 18.2-1.93 18-1.9 17.8-1.9 17.7L-1.9 17.7Q-1.8 16.55-1.7 15.48-1.6 14.4-1.35 13.35L-1.35 13.35Q-1.25 12.95-1.05 12.13-0.85 11.3-0.65 10.43-0.45 9.55-0.3 8.78-0.15 8-0.2 7.65ZM22.35-26.35L22.35-26.35Q21.5-23.4 20.42-20.3 19.35-17.2 18.2-14.45L18.2-14.45Q18.15-14.3 17.92-13.9 17.7-13.5 17.55-13.55L17.55-13.55Q17.45-13.55 17.42-14.03 17.4-14.5 17.45-14.75L17.45-14.75Q17.55-15.4 17.75-16.35 17.95-17.3 18.17-18.3 18.4-19.3 18.62-20.25 18.85-21.2 19.1-21.9L19.1-21.9Q19.2-22.2 19.45-23.2 19.7-24.2 20-25.6 20.3-27 20.62-28.6 20.95-30.2 21.17-31.7 21.4-33.2 21.5-34.45 21.6-35.7 21.45-36.35L21.45-36.35Q21.3-36.85 21.45-36.85L21.45-36.85Q21.55-36.85 21.62-36.73 21.7-36.6 21.8-36.5L21.8-36.5Q22.3-35.6 22.57-34.3 22.85-33 22.9-31.6 22.95-30.2 22.8-28.8 22.65-27.4 22.35-26.35ZM20.35-37.9L20.35-37.9Q21-35.35 20.67-32.55 20.35-29.75 19.55-26.85 18.75-23.95 17.75-20.98 16.75-18 16.05-15L16.05-15Q15.6-13.1 15.32-11.08 15.05-9.05 15.05-7.08 15.05-5.1 15.37-3.28 15.7-1.45 16.5 0L16.5 0Q16.6 0.2 16.57 0.3 16.55 0.4 16.25 0L16.25 0Q14.95-1.5 14.32-3.4 13.7-5.3 13.6-7.4 13.5-9.5 13.8-11.75 14.1-14 14.65-16.15L14.65-16.15Q15.4-19.15 16.32-22.05 17.25-24.95 18.07-27.7 18.9-30.45 19.45-33.02 20-35.6 20-38L20-38Q20-38.25 20.05-38.25L20.05-38.25Q20.25-38.25 20.35-37.9ZM29.45 0L29.45 0Q27.6-0.85 26.5-2.65 25.4-4.45 25.15-6.8L25.15-6.8Q24.9-9.1 25.15-10.63 25.4-12.15 25.75-13.65L25.75-13.65Q25.8-13.85 25.95-14.33 26.1-14.8 26.17-15.3 26.25-15.8 26.17-16.18 26.1-16.55 25.75-16.65L25.75-16.65Q25.05-16.8 24.15-16.03 23.25-15.25 22.42-14.1 21.6-12.95 20.92-11.73 20.25-10.5 20.05-9.8L20.05-9.8Q19.6-8.35 19.1-7.05 18.6-5.75 18.2-4.45L18.2-4.45Q18.05-3.9 17.95-3.95L17.95-3.95Q17.85-3.95 17.82-4.15 17.8-4.35 17.8-4.6L17.8-4.6Q17.8-6.6 18.1-8.63 18.4-10.65 18.92-12.65 19.45-14.65 20.1-16.65 20.75-18.65 21.35-20.7L21.35-20.7Q22.15-23.25 22.87-25.9 23.6-28.55 23.85-31.6L23.85-31.6Q23.85-31.85 23.85-31.88 23.85-31.9 23.9-31.9L23.9-31.9Q24.05-31.9 24.15-31.5L24.15-31.5Q24.4-30.85 24.37-29.68 24.35-28.5 24.17-27.1 24-25.7 23.67-24.25 23.35-22.8 23-21.65L23-21.65Q23.95-22.65 25.25-23.2 26.55-23.75 28.35-23.5L28.35-23.5Q30.4-23.2 31.5-22.03 32.6-20.85 33-19.2 33.4-17.55 33.22-15.68 33.05-13.8 32.6-12.05L32.6-12.05Q32.2-10.7 31.85-9.68 31.5-8.65 31.15-7.8 30.8-6.95 30.55-6.2 30.3-5.45 30.15-4.6L30.15-4.6Q30.05-4.05 29.95-4.05L29.95-4.05Q29.85-4.05 29.77-4.25 29.7-4.45 29.65-4.65L29.65-4.65Q29.35-5.75 29.62-7.35 29.9-8.95 30.35-10.73 30.8-12.5 31.17-14.33 31.55-16.15 31.47-17.7 31.4-19.25 30.65-20.43 29.9-21.6 28.1-22.05L28.1-22.05Q27.35-22.25 26.47-22.18 25.6-22.1 24.82-21.78 24.05-21.45 23.45-20.85 22.85-20.25 22.65-19.45L22.65-19.45Q23.6-20.45 25.1-21.1 26.6-21.75 28-21.3L28-21.3Q29.3-20.9 29.85-19.85 30.4-18.8 30.5-18L30.5-18Q30.7-16.25 30.27-14.83 29.85-13.4 29.3-12.1L29.3-12.1Q29.2-11.95 29-11.63 28.8-11.3 28.7-11.35L28.7-11.35Q28.6-11.35 28.6-11.75 28.6-12.15 28.65-12.35L28.65-12.35Q28.8-12.85 28.9-13.93 29-15 28.97-16.15 28.95-17.3 28.67-18.3 28.4-19.3 27.8-19.65L27.8-19.65Q27.1-20.05 26.1-19.88 25.1-19.7 23.95-18.65L23.95-18.65Q22.95-17.75 22.25-16.57 21.55-15.4 21.05-13.5L21.05-13.5Q21.35-14.05 22-15.05 22.65-16.05 23.47-16.95 24.3-17.85 25.22-18.38 26.15-18.9 27-18.5L27-18.5Q27.55-18.2 27.72-17.48 27.9-16.75 27.82-15.85 27.75-14.95 27.55-14.1 27.35-13.25 27.2-12.75L27.2-12.75Q26.65-11.25 26.45-9.47 26.25-7.7 26.47-6 26.7-4.3 27.45-2.8 28.2-1.3 29.65-0.25L29.65-0.25Q30.1 0 29.82 0 29.55 0 29.45 0ZM30.75-0.4L30.75-0.4Q30.05-0.8 29.42-1.25 28.8-1.7 28.2-3L28.2-3Q27.95-3.5 27.82-4.35 27.7-5.2 27.67-5.98 27.65-6.75 27.75-7.28 27.85-7.8 28-7.75L28-7.75Q28.1-7.75 28.2-7.53 28.3-7.3 28.35-7 28.4-6.7 28.45-6.43 28.5-6.15 28.5-6.05L28.5-6.05Q28.7-4.95 28.85-4.42 29-3.9 29.25-3.3L29.25-3.3Q29.65-2.5 30.05-1.85 30.45-1.2 31.05-0.65L31.05-0.65Q31.3-0.45 31.17-0.35 31.05-0.25 30.75-0.4ZM18.1 0L18.1 0Q18.15 0 18.02 0.05 17.9 0.1 17.55 0L17.55 0Q17.15-0.2 16.72-0.75 16.3-1.3 16.05-2.9L16.05-2.9Q15.95-3.55 15.95-4.48 15.95-5.4 16.02-6.23 16.1-7.05 16.25-7.65 16.4-8.25 16.6-8.2L16.6-8.2Q16.65-8.2 16.7-7.9 16.75-7.6 16.8-7.23 16.85-6.85 16.85-6.48 16.85-6.1 16.85-5.95L16.85-5.95Q16.9-4.85 16.97-4.33 17.05-3.8 17.2-2.9L17.2-2.9Q17.35-1.95 17.55-1.18 17.75-0.4 18.1 0Z" opacity="1" transform="matrix(1,0,0,1,0,0)" fill="#ffffff" class="wordmark-text-0" data-fill-palette-color="primary" id="text-0"></path></svg></g></svg></g></svg></g></svg></g><g></g></svg></g></svg></g></svg></g></svg></g><defs></defs></svg><rect width="320" height="360" fill="none" stroke="none" visibility="hidden"></rect></g></svg></g></svg>