{
	"asset":{
		"generator":"Khronos glTF Blender I/O v4.2.60",
		"version":"2.0"
	},
	"extensionsUsed":[
		"KHR_materials_unlit"
	],
	"scene":0,
	"scenes":[
		{
			"name":"Scene",
			"nodes":[
				6
			]
		}
	],
	"nodes":[
		{
			"mesh":0,
			"name":"Object_4"
		},
		{
			"children":[
				0
			],
			"name":"Clouds_1",
			"rotation":[
				0.1908702701330185,
				0.2025245875120163,
				0.0603143647313118,
				0.9586002826690674
			]
		},
		{
			"mesh":1,
			"name":"Object_6"
		},
		{
			"children":[
				2
			],
			"name":"Planet_2",
			"rotation":[
				0.1908702701330185,
				0.2025245875120163,
				0.0603143647313118,
				0.9586002826690674
			]
		},
		{
			"children":[
				1,
				3
			],
			"name":"GLTF_SceneRootNode",
			"rotation":[
				0.70710688829422,
				0,
				0,
				0.7071066498756409
			]
		},
		{
			"children":[
				4
			],
			"name":"root"
		},
		{
			"children":[
				5
			],
			"name":"Sketchfab_model",
			"rotation":[
				-0.695625364780426,
				-0.022898241877555847,
				0.02219405211508274,
				0.7176967263221741
			]
		}
	],
	"animations":[
		{
			"channels":[
				{
					"sampler":0,
					"target":{
						"node":1,
						"path":"rotation"
					}
				},
				{
					"sampler":1,
					"target":{
						"node":1,
						"path":"scale"
					}
				},
				{
					"sampler":2,
					"target":{
						"node":3,
						"path":"rotation"
					}
				},
				{
					"sampler":3,
					"target":{
						"node":3,
						"path":"scale"
					}
				}
			],
			"name":"Animation",
			"samplers":[
				{
					"input":8,
					"interpolation":"LINEAR",
					"output":9
				},
				{
					"input":10,
					"interpolation":"STEP",
					"output":11
				},
				{
					"input":8,
					"interpolation":"LINEAR",
					"output":12
				},
				{
					"input":10,
					"interpolation":"STEP",
					"output":13
				}
			]
		}
	],
	"materials":[
		{
			"doubleSided":true,
			"extensions":{
				"KHR_materials_unlit":{}
			},
			"name":"Clouds.001",
			"pbrMetallicRoughness":{
				"baseColorTexture":{
					"index":0
				},
				"metallicFactor":0,
				"roughnessFactor":0.9
			}
		},
		{
			"extensions":{
				"KHR_materials_unlit":{}
			},
			"name":"Planet.001",
			"pbrMetallicRoughness":{
				"baseColorTexture":{
					"index":1
				},
				"metallicFactor":0,
				"roughnessFactor":0.9
			}
		}
	],
	"meshes":[
		{
			"name":"Object_0.001",
			"primitives":[
				{
					"attributes":{
						"POSITION":0,
						"NORMAL":1,
						"TEXCOORD_0":2
					},
					"indices":3,
					"material":0
				}
			]
		},
		{
			"name":"Object_1.001",
			"primitives":[
				{
					"attributes":{
						"POSITION":4,
						"NORMAL":5,
						"TEXCOORD_0":6
					},
					"indices":7,
					"material":1
				}
			]
		}
	],
	"textures":[
		{
			"sampler":0,
			"source":0
		},
		{
			"sampler":0,
			"source":1
		}
	],
	"images":[
		{
			"mimeType":"image/png",
			"name":"Clouds_baseColor",
			"uri":"Clouds_baseColor.png"
		},
		{
			"mimeType":"image/png",
			"name":"Planet_baseColor",
			"uri":"Planet_baseColor.png"
		}
	],
	"accessors":[
		{
			"bufferView":0,
			"componentType":5126,
			"count":17275,
			"max":[
				0.8758764863014221,
				0.8556590676307678,
				0.8727490901947021
			],
			"min":[
				-0.8756170868873596,
				-0.8642566204071045,
				-0.8757131099700928
			],
			"type":"VEC3"
		},
		{
			"bufferView":1,
			"componentType":5126,
			"count":17275,
			"type":"VEC3"
		},
		{
			"bufferView":2,
			"componentType":5126,
			"count":17275,
			"type":"VEC2"
		},
		{
			"bufferView":3,
			"componentType":5123,
			"count":51507,
			"type":"SCALAR"
		},
		{
			"bufferView":4,
			"componentType":5126,
			"count":1388,
			"max":[
				0.6538066267967224,
				0.6610085964202881,
				0.6610695123672485
			],
			"min":[
				-0.6610288619995117,
				-0.6491547226905823,
				-0.6532763242721558
			],
			"type":"VEC3"
		},
		{
			"bufferView":5,
			"componentType":5126,
			"count":1388,
			"type":"VEC3"
		},
		{
			"bufferView":6,
			"componentType":5126,
			"count":1388,
			"type":"VEC2"
		},
		{
			"bufferView":7,
			"componentType":5123,
			"count":7806,
			"type":"SCALAR"
		},
		{
			"bufferView":8,
			"componentType":5126,
			"count":361,
			"max":[
				15
			],
			"min":[
				0
			],
			"type":"SCALAR"
		},
		{
			"bufferView":9,
			"componentType":5126,
			"count":361,
			"type":"VEC4"
		},
		{
			"bufferView":10,
			"componentType":5126,
			"count":2,
			"max":[
				15
			],
			"min":[
				0
			],
			"type":"SCALAR"
		},
		{
			"bufferView":11,
			"componentType":5126,
			"count":2,
			"type":"VEC3"
		},
		{
			"bufferView":12,
			"componentType":5126,
			"count":361,
			"type":"VEC4"
		},
		{
			"bufferView":13,
			"componentType":5126,
			"count":2,
			"type":"VEC3"
		}
	],
	"bufferViews":[
		{
			"buffer":0,
			"byteLength":207300,
			"byteOffset":0,
			"target":34962
		},
		{
			"buffer":0,
			"byteLength":207300,
			"byteOffset":207300,
			"target":34962
		},
		{
			"buffer":0,
			"byteLength":138200,
			"byteOffset":414600,
			"target":34962
		},
		{
			"buffer":0,
			"byteLength":103014,
			"byteOffset":552800,
			"target":34963
		},
		{
			"buffer":0,
			"byteLength":16656,
			"byteOffset":655816,
			"target":34962
		},
		{
			"buffer":0,
			"byteLength":16656,
			"byteOffset":672472,
			"target":34962
		},
		{
			"buffer":0,
			"byteLength":11104,
			"byteOffset":689128,
			"target":34962
		},
		{
			"buffer":0,
			"byteLength":15612,
			"byteOffset":700232,
			"target":34963
		},
		{
			"buffer":0,
			"byteLength":1444,
			"byteOffset":715844
		},
		{
			"buffer":0,
			"byteLength":5776,
			"byteOffset":717288
		},
		{
			"buffer":0,
			"byteLength":8,
			"byteOffset":723064
		},
		{
			"buffer":0,
			"byteLength":24,
			"byteOffset":723072
		},
		{
			"buffer":0,
			"byteLength":5776,
			"byteOffset":723096
		},
		{
			"buffer":0,
			"byteLength":24,
			"byteOffset":728872
		}
	],
	"samplers":[
		{
			"magFilter":9729,
			"minFilter":9987
		}
	],
	"buffers":[
		{
			"byteLength":728896,
			"uri":"scene1.bin"
		}
	]
}
